<?xml version="1.0" encoding="UTF-8"?>
<svg width="400" height="400" viewBox="0 0 400 400" xmlns="http://www.w3.org/2000/svg">
  <rect width="400" height="400" fill="#0f172a"/>
  
  <!-- Faithful recreation with micro arrow hints -->
  
  <!-- Outer C - White stroke style -->
  <path d="
    M 270 105 
    L 160 105
    Q 60 105 60 200
    Q 60 295 160 295
    L 270 295
    L 275 290
    L 270 285
    L 160 285
    Q 75 285 75 200
    Q 75 115 160 115
    L 270 115
    L 275 110
    Z
  " fill="#f1f5f9"/>
  
  <!-- Inner C - Emerald stroke style -->
  <path d="
    M 285 155
    L 180 155
    Q 115 155 115 200
    Q 115 245 180 245
    L 285 245
    L 290 240
    L 285 235
    L 180 235
    Q 130 235 130 200
    Q 130 165 180 165
    L 285 165
    L 290 160
    Z
  " fill="#10b981"/>
</svg>
