<?xml version="1.0" encoding="UTF-8"?>
<svg width="400" height="400" viewBox="0 0 400 400" xmlns="http://www.w3.org/2000/svg">
  <!-- Background -->
  <rect width="400" height="400" fill="#0f172a"/>
  
  <!-- 
    Commute Compute Logo - Clean version
    Double C with arrow tips suggesting direction/travel
    Colors: White (#f1f5f9) and Emerald (#10b981)
  -->
  
  <!-- Outer C - White -->
  <path d="
    M 160 100
    A 100 100 0 1 0 160 300
    L 280 300
    L 280 270
    L 160 270
    A 70 70 0 1 1 160 130
    L 280 130
    L 280 100
    Z
  " fill="#f1f5f9"/>
  
  <!-- Outer C arrow tips (right side) -->
  <polygon points="280,100 300,90 300,110" fill="#f1f5f9"/>
  <polygon points="280,300 300,290 300,310" fill="#f1f5f9"/>
  
  <!-- Inner C - Emerald Green -->
  <path d="
    M 180 150
    A 50 50 0 1 0 180 250
    L 290 250
    L 290 220
    L 180 220
    A 20 20 0 1 1 180 180
    L 290 180
    L 290 150
    Z
  " fill="#10b981"/>
  
  <!-- Inner C arrow tips (right side) -->
  <polygon points="290,150 310,140 310,160" fill="#10b981"/>
  <polygon points="290,250 310,240 310,260" fill="#10b981"/>
</svg>
